<?xml version="1.0" encoding="utf-8" standalone="no"?>
<!DOCTYPE svg PUBLIC "-//W3C//DTD SVG 1.1//EN"
  "http://www.w3.org/Graphics/SVG/1.1/DTD/svg11.dtd">
<svg xmlns:xlink="http://www.w3.org/1999/xlink" width="561.519844pt" height="211.68pt" viewBox="0 0 561.519844 211.68" xmlns="http://www.w3.org/2000/svg" version="1.1">
 <metadata>
  <rdf:RDF xmlns:dc="http://purl.org/dc/elements/1.1/" xmlns:cc="http://creativecommons.org/ns#" xmlns:rdf="http://www.w3.org/1999/02/22-rdf-syntax-ns#">
   <cc:Work>
    <dc:type rdf:resource="http://purl.org/dc/dcmitype/StillImage"/>
    <dc:date>2025-10-24T23:39:56.695101</dc:date>
    <dc:format>image/svg+xml</dc:format>
    <dc:creator>
     <cc:Agent>
      <dc:title>Matplotlib v3.10.3, https://matplotlib.org/</dc:title>
     </cc:Agent>
    </dc:creator>
   </cc:Work>
  </rdf:RDF>
 </metadata>
 <defs>
  <style type="text/css">*{stroke-linejoin: round; stroke-linecap: butt}</style>
 </defs>
 <g id="figure_1">
  <g id="patch_1">
   <path d="M 0 211.68 
L 561.519844 211.68 
L 561.519844 -0 
L 0 -0 
z
" style="fill: #ffffff"/>
  </g>
  <g id="axes_1"/>
  <g id="patch_2">
   <path d="M 17.64 45.936 
L 284.94 45.936 
L 284.94 9.072 
L 17.64 9.072 
z
" style="fill: #4b5563"/>
  </g>
  <g id="patch_3">
   <path d="M 284.94 45.936 
L 406.44 45.936 
L 406.44 9.072 
L 284.94 9.072 
z
" style="fill: #4b5563"/>
  </g>
  <g id="patch_4">
   <path d="M 406.44 45.936 
L 527.94 45.936 
L 527.94 9.072 
L 406.44 9.072 
z
" style="fill: #4b5563"/>
  </g>
  <g id="patch_5">
   <path d="M 17.64 85.104 
L 284.94 85.104 
L 284.94 45.936 
L 17.64 45.936 
z
" style="fill: #ffffff; stroke: #d1d5db; stroke-width: 0.8; stroke-linejoin: miter"/>
  </g>
  <g id="patch_6">
   <path d="M 284.94 85.104 
L 406.44 85.104 
L 406.44 45.936 
L 284.94 45.936 
z
" style="fill: #ffffff; stroke: #d1d5db; stroke-width: 0.8; stroke-linejoin: miter"/>
  </g>
  <g id="patch_7">
   <path d="M 406.44 85.104 
L 527.94 85.104 
L 527.94 45.936 
L 406.44 45.936 
z
" style="fill: #ffffff; stroke: #d1d5db; stroke-width: 0.8; stroke-linejoin: miter"/>
  </g>
  <g id="patch_8">
   <path d="M 17.64 124.272 
L 284.94 124.272 
L 284.94 85.104 
L 17.64 85.104 
z
" style="fill: #ffffff; stroke: #d1d5db; stroke-width: 0.8; stroke-linejoin: miter"/>
  </g>
  <g id="patch_9">
   <path d="M 284.94 124.272 
L 406.44 124.272 
L 406.44 85.104 
L 284.94 85.104 
z
" style="fill: #ffffff; stroke: #d1d5db; stroke-width: 0.8; stroke-linejoin: miter"/>
  </g>
  <g id="patch_10">
   <path d="M 406.44 124.272 
L 527.94 124.272 
L 527.94 85.104 
L 406.44 85.104 
z
" style="fill: #ffffff; stroke: #d1d5db; stroke-width: 0.8; stroke-linejoin: miter"/>
  </g>
  <g id="patch_11">
   <path d="M 17.64 163.44 
L 284.94 163.44 
L 284.94 124.272 
L 17.64 124.272 
z
" style="fill: #ffffff; stroke: #d1d5db; stroke-width: 0.8; stroke-linejoin: miter"/>
  </g>
  <g id="patch_12">
   <path d="M 284.94 163.44 
L 406.44 163.44 
L 406.44 124.272 
L 284.94 124.272 
z
" style="fill: #ffffff; stroke: #d1d5db; stroke-width: 0.8; stroke-linejoin: miter"/>
  </g>
  <g id="patch_13">
   <path d="M 406.44 163.44 
L 527.94 163.44 
L 527.94 124.272 
L 406.44 124.272 
z
" style="fill: #ffffff; stroke: #d1d5db; stroke-width: 0.8; stroke-linejoin: miter"/>
  </g>
  <g id="patch_14">
   <path d="M 17.64 202.608 
L 284.94 202.608 
L 284.94 163.44 
L 17.64 163.44 
z
" style="fill: #ffffff; stroke: #d1d5db; stroke-width: 0.8; stroke-linejoin: miter"/>
  </g>
  <g id="patch_15">
   <path d="M 284.94 202.608 
L 406.44 202.608 
L 406.44 163.44 
L 284.94 163.44 
z
" style="fill: #ffffff; stroke: #d1d5db; stroke-width: 0.8; stroke-linejoin: miter"/>
  </g>
  <g id="patch_16">
   <path d="M 406.44 202.608 
L 527.94 202.608 
L 527.94 163.44 
L 406.44 163.44 
z
" style="fill: #ffffff; stroke: #d1d5db; stroke-width: 0.8; stroke-linejoin: miter"/>
  </g>
  <g id="patch_17">
   <path d="M 17.64 202.608 
L 503.64 202.608 
L 503.64 9.072 
L 17.64 9.072 
L 17.64 202.608 
z
" style="fill: none; stroke: #d1d5db; stroke-width: 1.2; stroke-linejoin: miter"/>
  </g>
  <g id="text_1">
   <!-- CLUSTERING METHOD -->
   <g style="fill: #ffffff" transform="translate(90.000938 30.263375) scale(0.1 -0.1)">
    <defs>
     <path id="DejaVuSans-Bold-43" d="M 4288 256 
Q 3956 84 3597 -3 
Q 3238 -91 2847 -91 
Q 1681 -91 1000 561 
Q 319 1213 319 2328 
Q 319 3447 1000 4098 
Q 1681 4750 2847 4750 
Q 3238 4750 3597 4662 
Q 3956 4575 4288 4403 
L 4288 3438 
Q 3953 3666 3628 3772 
Q 3303 3878 2944 3878 
Q 2300 3878 1931 3465 
Q 1563 3053 1563 2328 
Q 1563 1606 1931 1193 
Q 2300 781 2944 781 
Q 3303 781 3628 887 
Q 3953 994 4288 1222 
L 4288 256 
z
" transform="scale(0.015625)"/>
     <path id="DejaVuSans-Bold-4c" d="M 588 4666 
L 1791 4666 
L 1791 909 
L 3903 909 
L 3903 0 
L 588 0 
L 588 4666 
z
" transform="scale(0.015625)"/>
     <path id="DejaVuSans-Bold-55" d="M 588 4666 
L 1791 4666 
L 1791 1869 
Q 1791 1291 1980 1042 
Q 2169 794 2597 794 
Q 3028 794 3217 1042 
Q 3406 1291 3406 1869 
L 3406 4666 
L 4609 4666 
L 4609 1869 
Q 4609 878 4112 393 
Q 3616 -91 2597 -91 
Q 1581 -91 1084 393 
Q 588 878 588 1869 
L 588 4666 
z
" transform="scale(0.015625)"/>
     <path id="DejaVuSans-Bold-53" d="M 3834 4519 
L 3834 3531 
Q 3450 3703 3084 3790 
Q 2719 3878 2394 3878 
Q 1963 3878 1756 3759 
Q 1550 3641 1550 3391 
Q 1550 3203 1689 3098 
Q 1828 2994 2194 2919 
L 2706 2816 
Q 3484 2659 3812 2340 
Q 4141 2022 4141 1434 
Q 4141 663 3683 286 
Q 3225 -91 2284 -91 
Q 1841 -91 1394 -6 
Q 947 78 500 244 
L 500 1259 
Q 947 1022 1364 901 
Q 1781 781 2169 781 
Q 2563 781 2772 912 
Q 2981 1044 2981 1288 
Q 2981 1506 2839 1625 
Q 2697 1744 2272 1838 
L 1806 1941 
Q 1106 2091 782 2419 
Q 459 2747 459 3303 
Q 459 4000 909 4375 
Q 1359 4750 2203 4750 
Q 2588 4750 2994 4692 
Q 3400 4634 3834 4519 
z
" transform="scale(0.015625)"/>
     <path id="DejaVuSans-Bold-54" d="M 31 4666 
L 4331 4666 
L 4331 3756 
L 2784 3756 
L 2784 0 
L 1581 0 
L 1581 3756 
L 31 3756 
L 31 4666 
z
" transform="scale(0.015625)"/>
     <path id="DejaVuSans-Bold-45" d="M 588 4666 
L 3834 4666 
L 3834 3756 
L 1791 3756 
L 1791 2888 
L 3713 2888 
L 3713 1978 
L 1791 1978 
L 1791 909 
L 3903 909 
L 3903 0 
L 588 0 
L 588 4666 
z
" transform="scale(0.015625)"/>
     <path id="DejaVuSans-Bold-52" d="M 2297 2597 
Q 2675 2597 2839 2737 
Q 3003 2878 3003 3200 
Q 3003 3519 2839 3656 
Q 2675 3794 2297 3794 
L 1791 3794 
L 1791 2597 
L 2297 2597 
z
M 1791 1766 
L 1791 0 
L 588 0 
L 588 4666 
L 2425 4666 
Q 3347 4666 3776 4356 
Q 4206 4047 4206 3378 
Q 4206 2916 3982 2619 
Q 3759 2322 3309 2181 
Q 3556 2125 3751 1926 
Q 3947 1728 4147 1325 
L 4800 0 
L 3519 0 
L 2950 1159 
Q 2778 1509 2601 1637 
Q 2425 1766 2131 1766 
L 1791 1766 
z
" transform="scale(0.015625)"/>
     <path id="DejaVuSans-Bold-49" d="M 588 4666 
L 1791 4666 
L 1791 0 
L 588 0 
L 588 4666 
z
" transform="scale(0.015625)"/>
     <path id="DejaVuSans-Bold-4e" d="M 588 4666 
L 1931 4666 
L 3628 1466 
L 3628 4666 
L 4769 4666 
L 4769 0 
L 3425 0 
L 1728 3200 
L 1728 0 
L 588 0 
L 588 4666 
z
" transform="scale(0.015625)"/>
     <path id="DejaVuSans-Bold-47" d="M 4781 347 
Q 4331 128 3847 18 
Q 3363 -91 2847 -91 
Q 1681 -91 1000 561 
Q 319 1213 319 2328 
Q 319 3456 1012 4103 
Q 1706 4750 2913 4750 
Q 3378 4750 3804 4662 
Q 4231 4575 4609 4403 
L 4609 3438 
Q 4219 3659 3833 3768 
Q 3447 3878 3059 3878 
Q 2341 3878 1952 3476 
Q 1563 3075 1563 2328 
Q 1563 1588 1938 1184 
Q 2313 781 3003 781 
Q 3191 781 3352 804 
Q 3513 828 3641 878 
L 3641 1784 
L 2906 1784 
L 2906 2591 
L 4781 2591 
L 4781 347 
z
" transform="scale(0.015625)"/>
     <path id="DejaVuSans-Bold-20" transform="scale(0.015625)"/>
     <path id="DejaVuSans-Bold-4d" d="M 588 4666 
L 2119 4666 
L 3181 2169 
L 4250 4666 
L 5778 4666 
L 5778 0 
L 4641 0 
L 4641 3413 
L 3566 897 
L 2803 897 
L 1728 3413 
L 1728 0 
L 588 0 
L 588 4666 
z
" transform="scale(0.015625)"/>
     <path id="DejaVuSans-Bold-48" d="M 588 4666 
L 1791 4666 
L 1791 2888 
L 3566 2888 
L 3566 4666 
L 4769 4666 
L 4769 0 
L 3566 0 
L 3566 1978 
L 1791 1978 
L 1791 0 
L 588 0 
L 588 4666 
z
" transform="scale(0.015625)"/>
     <path id="DejaVuSans-Bold-4f" d="M 2719 3878 
Q 2169 3878 1866 3472 
Q 1563 3066 1563 2328 
Q 1563 1594 1866 1187 
Q 2169 781 2719 781 
Q 3272 781 3575 1187 
Q 3878 1594 3878 2328 
Q 3878 3066 3575 3472 
Q 3272 3878 2719 3878 
z
M 2719 4750 
Q 3844 4750 4481 4106 
Q 5119 3463 5119 2328 
Q 5119 1197 4481 553 
Q 3844 -91 2719 -91 
Q 1597 -91 958 553 
Q 319 1197 319 2328 
Q 319 3463 958 4106 
Q 1597 4750 2719 4750 
z
" transform="scale(0.015625)"/>
     <path id="DejaVuSans-Bold-44" d="M 1791 3756 
L 1791 909 
L 2222 909 
Q 2959 909 3348 1275 
Q 3738 1641 3738 2338 
Q 3738 3031 3350 3393 
Q 2963 3756 2222 3756 
L 1791 3756 
z
M 588 4666 
L 1856 4666 
Q 2919 4666 3439 4514 
Q 3959 4363 4331 4000 
Q 4659 3684 4818 3271 
Q 4978 2859 4978 2338 
Q 4978 1809 4818 1395 
Q 4659 981 4331 666 
Q 3956 303 3431 151 
Q 2906 0 1856 0 
L 588 0 
L 588 4666 
z
" transform="scale(0.015625)"/>
    </defs>
    <use xlink:href="#DejaVuSans-Bold-43"/>
    <use xlink:href="#DejaVuSans-Bold-4c" transform="translate(73.388672 0)"/>
    <use xlink:href="#DejaVuSans-Bold-55" transform="translate(133.484375 0)"/>
    <use xlink:href="#DejaVuSans-Bold-53" transform="translate(214.685547 0)"/>
    <use xlink:href="#DejaVuSans-Bold-54" transform="translate(286.707031 0)"/>
    <use xlink:href="#DejaVuSans-Bold-45" transform="translate(354.919922 0)"/>
    <use xlink:href="#DejaVuSans-Bold-52" transform="translate(423.230469 0)"/>
    <use xlink:href="#DejaVuSans-Bold-49" transform="translate(500.232422 0)"/>
    <use xlink:href="#DejaVuSans-Bold-4e" transform="translate(537.439453 0)"/>
    <use xlink:href="#DejaVuSans-Bold-47" transform="translate(621.130859 0)"/>
    <use xlink:href="#DejaVuSans-Bold-20" transform="translate(703.210938 0)"/>
    <use xlink:href="#DejaVuSans-Bold-4d" transform="translate(738.025391 0)"/>
    <use xlink:href="#DejaVuSans-Bold-45" transform="translate(837.537109 0)"/>
    <use xlink:href="#DejaVuSans-Bold-54" transform="translate(905.847656 0)"/>
    <use xlink:href="#DejaVuSans-Bold-48" transform="translate(974.060547 0)"/>
    <use xlink:href="#DejaVuSans-Bold-4f" transform="translate(1057.751953 0)"/>
    <use xlink:href="#DejaVuSans-Bold-44" transform="translate(1142.761719 0)"/>
   </g>
  </g>
  <g id="text_2">
   <!-- ROBUST TO OUTLIERS -->
   <g style="fill: #ffffff" transform="translate(283.929063 30.263375) scale(0.1 -0.1)">
    <defs>
     <path id="DejaVuSans-Bold-42" d="M 2456 2859 
Q 2741 2859 2887 2984 
Q 3034 3109 3034 3353 
Q 3034 3594 2887 3720 
Q 2741 3847 2456 3847 
L 1791 3847 
L 1791 2859 
L 2456 2859 
z
M 2497 819 
Q 2859 819 3042 972 
Q 3225 1125 3225 1434 
Q 3225 1738 3044 1889 
Q 2863 2041 2497 2041 
L 1791 2041 
L 1791 819 
L 2497 819 
z
M 3616 2497 
Q 4003 2384 4215 2081 
Q 4428 1778 4428 1338 
Q 4428 663 3972 331 
Q 3516 0 2584 0 
L 588 0 
L 588 4666 
L 2394 4666 
Q 3366 4666 3802 4372 
Q 4238 4078 4238 3431 
Q 4238 3091 4078 2852 
Q 3919 2613 3616 2497 
z
" transform="scale(0.015625)"/>
    </defs>
    <use xlink:href="#DejaVuSans-Bold-52"/>
    <use xlink:href="#DejaVuSans-Bold-4f" transform="translate(77.001953 0)"/>
    <use xlink:href="#DejaVuSans-Bold-42" transform="translate(162.011719 0)"/>
    <use xlink:href="#DejaVuSans-Bold-55" transform="translate(238.232422 0)"/>
    <use xlink:href="#DejaVuSans-Bold-53" transform="translate(319.433594 0)"/>
    <use xlink:href="#DejaVuSans-Bold-54" transform="translate(391.455078 0)"/>
    <use xlink:href="#DejaVuSans-Bold-20" transform="translate(459.667969 0)"/>
    <use xlink:href="#DejaVuSans-Bold-54" transform="translate(494.482422 0)"/>
    <use xlink:href="#DejaVuSans-Bold-4f" transform="translate(562.695312 0)"/>
    <use xlink:href="#DejaVuSans-Bold-20" transform="translate(647.705078 0)"/>
    <use xlink:href="#DejaVuSans-Bold-4f" transform="translate(682.519531 0)"/>
    <use xlink:href="#DejaVuSans-Bold-55" transform="translate(767.529297 0)"/>
    <use xlink:href="#DejaVuSans-Bold-54" transform="translate(848.730469 0)"/>
    <use xlink:href="#DejaVuSans-Bold-4c" transform="translate(916.943359 0)"/>
    <use xlink:href="#DejaVuSans-Bold-49" transform="translate(980.664062 0)"/>
    <use xlink:href="#DejaVuSans-Bold-45" transform="translate(1017.871094 0)"/>
    <use xlink:href="#DejaVuSans-Bold-52" transform="translate(1086.181641 0)"/>
    <use xlink:href="#DejaVuSans-Bold-53" transform="translate(1163.183594 0)"/>
   </g>
  </g>
  <g id="text_3">
   <!-- AWARE OF VARIABLE RELEVANCE -->
   <g style="fill: #ffffff" transform="translate(374.300156 30.263375) scale(0.1 -0.1)">
    <defs>
     <path id="DejaVuSans-Bold-41" d="M 3419 850 
L 1538 850 
L 1241 0 
L 31 0 
L 1759 4666 
L 3194 4666 
L 4922 0 
L 3713 0 
L 3419 850 
z
M 1838 1716 
L 3116 1716 
L 2478 3572 
L 1838 1716 
z
" transform="scale(0.015625)"/>
     <path id="DejaVuSans-Bold-57" d="M 191 4666 
L 1344 4666 
L 2150 1275 
L 2950 4666 
L 4109 4666 
L 4909 1275 
L 5716 4666 
L 6859 4666 
L 5759 0 
L 4372 0 
L 3525 3547 
L 2688 0 
L 1300 0 
L 191 4666 
z
" transform="scale(0.015625)"/>
     <path id="DejaVuSans-Bold-46" d="M 588 4666 
L 3834 4666 
L 3834 3756 
L 1791 3756 
L 1791 2888 
L 3713 2888 
L 3713 1978 
L 1791 1978 
L 1791 0 
L 588 0 
L 588 4666 
z
" transform="scale(0.015625)"/>
     <path id="DejaVuSans-Bold-56" d="M 31 4666 
L 1241 4666 
L 2478 1222 
L 3713 4666 
L 4922 4666 
L 3194 0 
L 1759 0 
L 31 4666 
z
" transform="scale(0.015625)"/>
    </defs>
    <use xlink:href="#DejaVuSans-Bold-41"/>
    <use xlink:href="#DejaVuSans-Bold-57" transform="translate(72.892578 0)"/>
    <use xlink:href="#DejaVuSans-Bold-41" transform="translate(178.695312 0)"/>
    <use xlink:href="#DejaVuSans-Bold-52" transform="translate(256.087891 0)"/>
    <use xlink:href="#DejaVuSans-Bold-45" transform="translate(333.089844 0)"/>
    <use xlink:href="#DejaVuSans-Bold-20" transform="translate(401.400391 0)"/>
    <use xlink:href="#DejaVuSans-Bold-4f" transform="translate(436.214844 0)"/>
    <use xlink:href="#DejaVuSans-Bold-46" transform="translate(521.224609 0)"/>
    <use xlink:href="#DejaVuSans-Bold-20" transform="translate(589.535156 0)"/>
    <use xlink:href="#DejaVuSans-Bold-56" transform="translate(624.349609 0)"/>
    <use xlink:href="#DejaVuSans-Bold-41" transform="translate(694.992188 0)"/>
    <use xlink:href="#DejaVuSans-Bold-52" transform="translate(772.384766 0)"/>
    <use xlink:href="#DejaVuSans-Bold-49" transform="translate(849.386719 0)"/>
    <use xlink:href="#DejaVuSans-Bold-41" transform="translate(886.59375 0)"/>
    <use xlink:href="#DejaVuSans-Bold-42" transform="translate(963.986328 0)"/>
    <use xlink:href="#DejaVuSans-Bold-4c" transform="translate(1040.207031 0)"/>
    <use xlink:href="#DejaVuSans-Bold-45" transform="translate(1103.927734 0)"/>
    <use xlink:href="#DejaVuSans-Bold-20" transform="translate(1172.238281 0)"/>
    <use xlink:href="#DejaVuSans-Bold-52" transform="translate(1207.052734 0)"/>
    <use xlink:href="#DejaVuSans-Bold-45" transform="translate(1284.054688 0)"/>
    <use xlink:href="#DejaVuSans-Bold-4c" transform="translate(1352.365234 0)"/>
    <use xlink:href="#DejaVuSans-Bold-45" transform="translate(1416.085938 0)"/>
    <use xlink:href="#DejaVuSans-Bold-56" transform="translate(1484.396484 0)"/>
    <use xlink:href="#DejaVuSans-Bold-41" transform="translate(1555.039062 0)"/>
    <use xlink:href="#DejaVuSans-Bold-4e" transform="translate(1632.431641 0)"/>
    <use xlink:href="#DejaVuSans-Bold-43" transform="translate(1716.123047 0)"/>
    <use xlink:href="#DejaVuSans-Bold-45" transform="translate(1789.511719 0)"/>
   </g>
  </g>
  <g id="text_4">
   <!-- Fuzzy C-Means (FCM) -->
   <g style="fill: #111827" transform="translate(28.44 68.141406) scale(0.095 -0.095)">
    <defs>
     <path id="DejaVuSans-46" d="M 628 4666 
L 3309 4666 
L 3309 4134 
L 1259 4134 
L 1259 2759 
L 3109 2759 
L 3109 2228 
L 1259 2228 
L 1259 0 
L 628 0 
L 628 4666 
z
" transform="scale(0.015625)"/>
     <path id="DejaVuSans-75" d="M 544 1381 
L 544 3500 
L 1119 3500 
L 1119 1403 
Q 1119 906 1312 657 
Q 1506 409 1894 409 
Q 2359 409 2629 706 
Q 2900 1003 2900 1516 
L 2900 3500 
L 3475 3500 
L 3475 0 
L 2900 0 
L 2900 538 
Q 2691 219 2414 64 
Q 2138 -91 1772 -91 
Q 1169 -91 856 284 
Q 544 659 544 1381 
z
M 1991 3584 
L 1991 3584 
z
" transform="scale(0.015625)"/>
     <path id="DejaVuSans-7a" d="M 353 3500 
L 3084 3500 
L 3084 2975 
L 922 459 
L 3084 459 
L 3084 0 
L 275 0 
L 275 525 
L 2438 3041 
L 353 3041 
L 353 3500 
z
" transform="scale(0.015625)"/>
     <path id="DejaVuSans-79" d="M 2059 -325 
Q 1816 -950 1584 -1140 
Q 1353 -1331 966 -1331 
L 506 -1331 
L 506 -850 
L 844 -850 
Q 1081 -850 1212 -737 
Q 1344 -625 1503 -206 
L 1606 56 
L 191 3500 
L 800 3500 
L 1894 763 
L 2988 3500 
L 3597 3500 
L 2059 -325 
z
" transform="scale(0.015625)"/>
     <path id="DejaVuSans-20" transform="scale(0.015625)"/>
     <path id="DejaVuSans-43" d="M 4122 4306 
L 4122 3641 
Q 3803 3938 3442 4084 
Q 3081 4231 2675 4231 
Q 1875 4231 1450 3742 
Q 1025 3253 1025 2328 
Q 1025 1406 1450 917 
Q 1875 428 2675 428 
Q 3081 428 3442 575 
Q 3803 722 4122 1019 
L 4122 359 
Q 3791 134 3420 21 
Q 3050 -91 2638 -91 
Q 1578 -91 968 557 
Q 359 1206 359 2328 
Q 359 3453 968 4101 
Q 1578 4750 2638 4750 
Q 3056 4750 3426 4639 
Q 3797 4528 4122 4306 
z
" transform="scale(0.015625)"/>
     <path id="DejaVuSans-2d" d="M 313 2009 
L 1997 2009 
L 1997 1497 
L 313 1497 
L 313 2009 
z
" transform="scale(0.015625)"/>
     <path id="DejaVuSans-4d" d="M 628 4666 
L 1569 4666 
L 2759 1491 
L 3956 4666 
L 4897 4666 
L 4897 0 
L 4281 0 
L 4281 4097 
L 3078 897 
L 2444 897 
L 1241 4097 
L 1241 0 
L 628 0 
L 628 4666 
z
" transform="scale(0.015625)"/>
     <path id="DejaVuSans-65" d="M 3597 1894 
L 3597 1613 
L 953 1613 
Q 991 1019 1311 708 
Q 1631 397 2203 397 
Q 2534 397 2845 478 
Q 3156 559 3463 722 
L 3463 178 
Q 3153 47 2828 -22 
Q 2503 -91 2169 -91 
Q 1331 -91 842 396 
Q 353 884 353 1716 
Q 353 2575 817 3079 
Q 1281 3584 2069 3584 
Q 2775 3584 3186 3129 
Q 3597 2675 3597 1894 
z
M 3022 2063 
Q 3016 2534 2758 2815 
Q 2500 3097 2075 3097 
Q 1594 3097 1305 2825 
Q 1016 2553 972 2059 
L 3022 2063 
z
" transform="scale(0.015625)"/>
     <path id="DejaVuSans-61" d="M 2194 1759 
Q 1497 1759 1228 1600 
Q 959 1441 959 1056 
Q 959 750 1161 570 
Q 1363 391 1709 391 
Q 2188 391 2477 730 
Q 2766 1069 2766 1631 
L 2766 1759 
L 2194 1759 
z
M 3341 1997 
L 3341 0 
L 2766 0 
L 2766 531 
Q 2569 213 2275 61 
Q 1981 -91 1556 -91 
Q 1019 -91 701 211 
Q 384 513 384 1019 
Q 384 1609 779 1909 
Q 1175 2209 1959 2209 
L 2766 2209 
L 2766 2266 
Q 2766 2663 2505 2880 
Q 2244 3097 1772 3097 
Q 1472 3097 1187 3025 
Q 903 2953 641 2809 
L 641 3341 
Q 956 3463 1253 3523 
Q 1550 3584 1831 3584 
Q 2591 3584 2966 3190 
Q 3341 2797 3341 1997 
z
" transform="scale(0.015625)"/>
     <path id="DejaVuSans-6e" d="M 3513 2113 
L 3513 0 
L 2938 0 
L 2938 2094 
Q 2938 2591 2744 2837 
Q 2550 3084 2163 3084 
Q 1697 3084 1428 2787 
Q 1159 2491 1159 1978 
L 1159 0 
L 581 0 
L 581 3500 
L 1159 3500 
L 1159 2956 
Q 1366 3272 1645 3428 
Q 1925 3584 2291 3584 
Q 2894 3584 3203 3211 
Q 3513 2838 3513 2113 
z
" transform="scale(0.015625)"/>
     <path id="DejaVuSans-73" d="M 2834 3397 
L 2834 2853 
Q 2591 2978 2328 3040 
Q 2066 3103 1784 3103 
Q 1356 3103 1142 2972 
Q 928 2841 928 2578 
Q 928 2378 1081 2264 
Q 1234 2150 1697 2047 
L 1894 2003 
Q 2506 1872 2764 1633 
Q 3022 1394 3022 966 
Q 3022 478 2636 193 
Q 2250 -91 1575 -91 
Q 1294 -91 989 -36 
Q 684 19 347 128 
L 347 722 
Q 666 556 975 473 
Q 1284 391 1588 391 
Q 1994 391 2212 530 
Q 2431 669 2431 922 
Q 2431 1156 2273 1281 
Q 2116 1406 1581 1522 
L 1381 1569 
Q 847 1681 609 1914 
Q 372 2147 372 2553 
Q 372 3047 722 3315 
Q 1072 3584 1716 3584 
Q 2034 3584 2315 3537 
Q 2597 3491 2834 3397 
z
" transform="scale(0.015625)"/>
     <path id="DejaVuSans-28" d="M 1984 4856 
Q 1566 4138 1362 3434 
Q 1159 2731 1159 2009 
Q 1159 1288 1364 580 
Q 1569 -128 1984 -844 
L 1484 -844 
Q 1016 -109 783 600 
Q 550 1309 550 2009 
Q 550 2706 781 3412 
Q 1013 4119 1484 4856 
L 1984 4856 
z
" transform="scale(0.015625)"/>
     <path id="DejaVuSans-29" d="M 513 4856 
L 1013 4856 
Q 1481 4119 1714 3412 
Q 1947 2706 1947 2009 
Q 1947 1309 1714 600 
Q 1481 -109 1013 -844 
L 513 -844 
Q 928 -128 1133 580 
Q 1338 1288 1338 2009 
Q 1338 2731 1133 3434 
Q 928 4138 513 4856 
z
" transform="scale(0.015625)"/>
    </defs>
    <use xlink:href="#DejaVuSans-46"/>
    <use xlink:href="#DejaVuSans-75" transform="translate(52.019531 0)"/>
    <use xlink:href="#DejaVuSans-7a" transform="translate(115.398438 0)"/>
    <use xlink:href="#DejaVuSans-7a" transform="translate(167.888672 0)"/>
    <use xlink:href="#DejaVuSans-79" transform="translate(220.378906 0)"/>
    <use xlink:href="#DejaVuSans-20" transform="translate(279.558594 0)"/>
    <use xlink:href="#DejaVuSans-43" transform="translate(311.345703 0)"/>
    <use xlink:href="#DejaVuSans-2d" transform="translate(381.169922 0)"/>
    <use xlink:href="#DejaVuSans-4d" transform="translate(417.253906 0)"/>
    <use xlink:href="#DejaVuSans-65" transform="translate(503.533203 0)"/>
    <use xlink:href="#DejaVuSans-61" transform="translate(565.056641 0)"/>
    <use xlink:href="#DejaVuSans-6e" transform="translate(626.335938 0)"/>
    <use xlink:href="#DejaVuSans-73" transform="translate(689.714844 0)"/>
    <use xlink:href="#DejaVuSans-20" transform="translate(741.814453 0)"/>
    <use xlink:href="#DejaVuSans-28" transform="translate(773.601562 0)"/>
    <use xlink:href="#DejaVuSans-46" transform="translate(812.615234 0)"/>
    <use xlink:href="#DejaVuSans-43" transform="translate(870.134766 0)"/>
    <use xlink:href="#DejaVuSans-4d" transform="translate(939.958984 0)"/>
    <use xlink:href="#DejaVuSans-29" transform="translate(1026.238281 0)"/>
   </g>
  </g>
  <g id="text_5">
   <!-- ✖ -->
   <g style="fill: #ef4444" transform="translate(339.824219 69.383125) scale(0.14 -0.14)">
    <defs>
     <path id="DejaVuSans-2716" d="M 3653 2331 
L 4816 1169 
L 3844 197 
L 2681 1359 
L 1519 197 
L 547 1169 
L 1709 2331 
L 547 3494 
L 1519 4466 
L 2681 3303 
L 3844 4469 
L 4816 3497 
L 3653 2331 
z
" transform="scale(0.015625)"/>
    </defs>
    <use xlink:href="#DejaVuSans-2716"/>
   </g>
  </g>
  <g id="text_6">
   <!-- ✖ -->
   <g style="fill: #ef4444" transform="translate(461.324219 69.383125) scale(0.14 -0.14)">
    <use xlink:href="#DejaVuSans-2716"/>
   </g>
  </g>
  <g id="text_7">
   <!-- Fuzzy C-Medoids (FCMd) -->
   <g style="fill: #111827" transform="translate(28.44 107.309406) scale(0.095 -0.095)">
    <defs>
     <path id="DejaVuSans-64" d="M 2906 2969 
L 2906 4863 
L 3481 4863 
L 3481 0 
L 2906 0 
L 2906 525 
Q 2725 213 2448 61 
Q 2172 -91 1784 -91 
Q 1150 -91 751 415 
Q 353 922 353 1747 
Q 353 2572 751 3078 
Q 1150 3584 1784 3584 
Q 2172 3584 2448 3432 
Q 2725 3281 2906 2969 
z
M 947 1747 
Q 947 1113 1208 752 
Q 1469 391 1925 391 
Q 2381 391 2643 752 
Q 2906 1113 2906 1747 
Q 2906 2381 2643 2742 
Q 2381 3103 1925 3103 
Q 1469 3103 1208 2742 
Q 947 2381 947 1747 
z
" transform="scale(0.015625)"/>
     <path id="DejaVuSans-6f" d="M 1959 3097 
Q 1497 3097 1228 2736 
Q 959 2375 959 1747 
Q 959 1119 1226 758 
Q 1494 397 1959 397 
Q 2419 397 2687 759 
Q 2956 1122 2956 1747 
Q 2956 2369 2687 2733 
Q 2419 3097 1959 3097 
z
M 1959 3584 
Q 2709 3584 3137 3096 
Q 3566 2609 3566 1747 
Q 3566 888 3137 398 
Q 2709 -91 1959 -91 
Q 1206 -91 779 398 
Q 353 888 353 1747 
Q 353 2609 779 3096 
Q 1206 3584 1959 3584 
z
" transform="scale(0.015625)"/>
     <path id="DejaVuSans-69" d="M 603 3500 
L 1178 3500 
L 1178 0 
L 603 0 
L 603 3500 
z
M 603 4863 
L 1178 4863 
L 1178 4134 
L 603 4134 
L 603 4863 
z
" transform="scale(0.015625)"/>
    </defs>
    <use xlink:href="#DejaVuSans-46"/>
    <use xlink:href="#DejaVuSans-75" transform="translate(52.019531 0)"/>
    <use xlink:href="#DejaVuSans-7a" transform="translate(115.398438 0)"/>
    <use xlink:href="#DejaVuSans-7a" transform="translate(167.888672 0)"/>
    <use xlink:href="#DejaVuSans-79" transform="translate(220.378906 0)"/>
    <use xlink:href="#DejaVuSans-20" transform="translate(279.558594 0)"/>
    <use xlink:href="#DejaVuSans-43" transform="translate(311.345703 0)"/>
    <use xlink:href="#DejaVuSans-2d" transform="translate(381.169922 0)"/>
    <use xlink:href="#DejaVuSans-4d" transform="translate(417.253906 0)"/>
    <use xlink:href="#DejaVuSans-65" transform="translate(503.533203 0)"/>
    <use xlink:href="#DejaVuSans-64" transform="translate(565.056641 0)"/>
    <use xlink:href="#DejaVuSans-6f" transform="translate(628.533203 0)"/>
    <use xlink:href="#DejaVuSans-69" transform="translate(689.714844 0)"/>
    <use xlink:href="#DejaVuSans-64" transform="translate(717.498047 0)"/>
    <use xlink:href="#DejaVuSans-73" transform="translate(780.974609 0)"/>
    <use xlink:href="#DejaVuSans-20" transform="translate(833.074219 0)"/>
    <use xlink:href="#DejaVuSans-28" transform="translate(864.861328 0)"/>
    <use xlink:href="#DejaVuSans-46" transform="translate(903.875 0)"/>
    <use xlink:href="#DejaVuSans-43" transform="translate(961.394531 0)"/>
    <use xlink:href="#DejaVuSans-4d" transform="translate(1031.21875 0)"/>
    <use xlink:href="#DejaVuSans-64" transform="translate(1117.498047 0)"/>
    <use xlink:href="#DejaVuSans-29" transform="translate(1180.974609 0)"/>
   </g>
  </g>
  <g id="text_8">
   <!-- ✔ -->
   <g style="fill: #10b981" transform="translate(339.824219 108.551125) scale(0.14 -0.14)">
    <defs>
     <path id="DejaVuSans-2714" d="M 1416 2481 
Q 1538 2481 1600 2281 
Q 1725 1906 1778 1906 
Q 1819 1906 1863 1969 
Q 2741 3259 3488 3806 
Q 3803 4038 4103 4038 
Q 4500 4038 4581 4013 
Q 4616 4003 4616 3934 
Q 4616 3878 4544 3794 
Q 2534 1488 2150 794 
Q 2019 556 1544 556 
Q 1388 556 1216 638 
Q 1144 675 966 1116 
Q 741 1672 741 2091 
Q 741 2244 959 2344 
Q 1259 2481 1409 2481 
L 1416 2481 
z
" transform="scale(0.015625)"/>
    </defs>
    <use xlink:href="#DejaVuSans-2714"/>
   </g>
  </g>
  <g id="text_9">
   <!-- ✖ -->
   <g style="fill: #ef4444" transform="translate(461.324219 108.551125) scale(0.14 -0.14)">
    <use xlink:href="#DejaVuSans-2716"/>
   </g>
  </g>
  <g id="text_10">
   <!-- Multivariate Fuzzy C-Means (MFCM) -->
   <g style="fill: #111827" transform="translate(28.44 146.477406) scale(0.095 -0.095)">
    <defs>
     <path id="DejaVuSans-6c" d="M 603 4863 
L 1178 4863 
L 1178 0 
L 603 0 
L 603 4863 
z
" transform="scale(0.015625)"/>
     <path id="DejaVuSans-74" d="M 1172 4494 
L 1172 3500 
L 2356 3500 
L 2356 3053 
L 1172 3053 
L 1172 1153 
Q 1172 725 1289 603 
Q 1406 481 1766 481 
L 2356 481 
L 2356 0 
L 1766 0 
Q 1100 0 847 248 
Q 594 497 594 1153 
L 594 3053 
L 172 3053 
L 172 3500 
L 594 3500 
L 594 4494 
L 1172 4494 
z
" transform="scale(0.015625)"/>
     <path id="DejaVuSans-76" d="M 191 3500 
L 800 3500 
L 1894 563 
L 2988 3500 
L 3597 3500 
L 2284 0 
L 1503 0 
L 191 3500 
z
" transform="scale(0.015625)"/>
     <path id="DejaVuSans-72" d="M 2631 2963 
Q 2534 3019 2420 3045 
Q 2306 3072 2169 3072 
Q 1681 3072 1420 2755 
Q 1159 2438 1159 1844 
L 1159 0 
L 581 0 
L 581 3500 
L 1159 3500 
L 1159 2956 
Q 1341 3275 1631 3429 
Q 1922 3584 2338 3584 
Q 2397 3584 2469 3576 
Q 2541 3569 2628 3553 
L 2631 2963 
z
" transform="scale(0.015625)"/>
    </defs>
    <use xlink:href="#DejaVuSans-4d"/>
    <use xlink:href="#DejaVuSans-75" transform="translate(86.279297 0)"/>
    <use xlink:href="#DejaVuSans-6c" transform="translate(149.658203 0)"/>
    <use xlink:href="#DejaVuSans-74" transform="translate(177.441406 0)"/>
    <use xlink:href="#DejaVuSans-69" transform="translate(216.650391 0)"/>
    <use xlink:href="#DejaVuSans-76" transform="translate(244.433594 0)"/>
    <use xlink:href="#DejaVuSans-61" transform="translate(303.613281 0)"/>
    <use xlink:href="#DejaVuSans-72" transform="translate(364.892578 0)"/>
    <use xlink:href="#DejaVuSans-69" transform="translate(406.005859 0)"/>
    <use xlink:href="#DejaVuSans-61" transform="translate(433.789062 0)"/>
    <use xlink:href="#DejaVuSans-74" transform="translate(495.068359 0)"/>
    <use xlink:href="#DejaVuSans-65" transform="translate(534.277344 0)"/>
    <use xlink:href="#DejaVuSans-20" transform="translate(595.800781 0)"/>
    <use xlink:href="#DejaVuSans-46" transform="translate(627.587891 0)"/>
    <use xlink:href="#DejaVuSans-75" transform="translate(679.607422 0)"/>
    <use xlink:href="#DejaVuSans-7a" transform="translate(742.986328 0)"/>
    <use xlink:href="#DejaVuSans-7a" transform="translate(795.476562 0)"/>
    <use xlink:href="#DejaVuSans-79" transform="translate(847.966797 0)"/>
    <use xlink:href="#DejaVuSans-20" transform="translate(907.146484 0)"/>
    <use xlink:href="#DejaVuSans-43" transform="translate(938.933594 0)"/>
    <use xlink:href="#DejaVuSans-2d" transform="translate(1008.757812 0)"/>
    <use xlink:href="#DejaVuSans-4d" transform="translate(1044.841797 0)"/>
    <use xlink:href="#DejaVuSans-65" transform="translate(1131.121094 0)"/>
    <use xlink:href="#DejaVuSans-61" transform="translate(1192.644531 0)"/>
    <use xlink:href="#DejaVuSans-6e" transform="translate(1253.923828 0)"/>
    <use xlink:href="#DejaVuSans-73" transform="translate(1317.302734 0)"/>
    <use xlink:href="#DejaVuSans-20" transform="translate(1369.402344 0)"/>
    <use xlink:href="#DejaVuSans-28" transform="translate(1401.189453 0)"/>
    <use xlink:href="#DejaVuSans-4d" transform="translate(1440.203125 0)"/>
    <use xlink:href="#DejaVuSans-46" transform="translate(1526.482422 0)"/>
    <use xlink:href="#DejaVuSans-43" transform="translate(1584.001953 0)"/>
    <use xlink:href="#DejaVuSans-4d" transform="translate(1653.826172 0)"/>
    <use xlink:href="#DejaVuSans-29" transform="translate(1740.105469 0)"/>
   </g>
  </g>
  <g id="text_11">
   <!-- ✖ -->
   <g style="fill: #ef4444" transform="translate(339.824219 147.719125) scale(0.14 -0.14)">
    <use xlink:href="#DejaVuSans-2716"/>
   </g>
  </g>
  <g id="text_12">
   <!-- ✔ -->
   <g style="fill: #10b981" transform="translate(461.324219 147.719125) scale(0.14 -0.14)">
    <use xlink:href="#DejaVuSans-2714"/>
   </g>
  </g>
  <g id="text_13">
   <!-- Multivariate Fuzzy C-Medoids (MFCMd) -->
   <g style="fill: #111827" transform="translate(28.44 185.645406) scale(0.095 -0.095)">
    <use xlink:href="#DejaVuSans-4d"/>
    <use xlink:href="#DejaVuSans-75" transform="translate(86.279297 0)"/>
    <use xlink:href="#DejaVuSans-6c" transform="translate(149.658203 0)"/>
    <use xlink:href="#DejaVuSans-74" transform="translate(177.441406 0)"/>
    <use xlink:href="#DejaVuSans-69" transform="translate(216.650391 0)"/>
    <use xlink:href="#DejaVuSans-76" transform="translate(244.433594 0)"/>
    <use xlink:href="#DejaVuSans-61" transform="translate(303.613281 0)"/>
    <use xlink:href="#DejaVuSans-72" transform="translate(364.892578 0)"/>
    <use xlink:href="#DejaVuSans-69" transform="translate(406.005859 0)"/>
    <use xlink:href="#DejaVuSans-61" transform="translate(433.789062 0)"/>
    <use xlink:href="#DejaVuSans-74" transform="translate(495.068359 0)"/>
    <use xlink:href="#DejaVuSans-65" transform="translate(534.277344 0)"/>
    <use xlink:href="#DejaVuSans-20" transform="translate(595.800781 0)"/>
    <use xlink:href="#DejaVuSans-46" transform="translate(627.587891 0)"/>
    <use xlink:href="#DejaVuSans-75" transform="translate(679.607422 0)"/>
    <use xlink:href="#DejaVuSans-7a" transform="translate(742.986328 0)"/>
    <use xlink:href="#DejaVuSans-7a" transform="translate(795.476562 0)"/>
    <use xlink:href="#DejaVuSans-79" transform="translate(847.966797 0)"/>
    <use xlink:href="#DejaVuSans-20" transform="translate(907.146484 0)"/>
    <use xlink:href="#DejaVuSans-43" transform="translate(938.933594 0)"/>
    <use xlink:href="#DejaVuSans-2d" transform="translate(1008.757812 0)"/>
    <use xlink:href="#DejaVuSans-4d" transform="translate(1044.841797 0)"/>
    <use xlink:href="#DejaVuSans-65" transform="translate(1131.121094 0)"/>
    <use xlink:href="#DejaVuSans-64" transform="translate(1192.644531 0)"/>
    <use xlink:href="#DejaVuSans-6f" transform="translate(1256.121094 0)"/>
    <use xlink:href="#DejaVuSans-69" transform="translate(1317.302734 0)"/>
    <use xlink:href="#DejaVuSans-64" transform="translate(1345.085938 0)"/>
    <use xlink:href="#DejaVuSans-73" transform="translate(1408.5625 0)"/>
    <use xlink:href="#DejaVuSans-20" transform="translate(1460.662109 0)"/>
    <use xlink:href="#DejaVuSans-28" transform="translate(1492.449219 0)"/>
    <use xlink:href="#DejaVuSans-4d" transform="translate(1531.462891 0)"/>
    <use xlink:href="#DejaVuSans-46" transform="translate(1617.742188 0)"/>
    <use xlink:href="#DejaVuSans-43" transform="translate(1675.261719 0)"/>
    <use xlink:href="#DejaVuSans-4d" transform="translate(1745.085938 0)"/>
    <use xlink:href="#DejaVuSans-64" transform="translate(1831.365234 0)"/>
    <use xlink:href="#DejaVuSans-29" transform="translate(1894.841797 0)"/>
   </g>
  </g>
  <g id="text_14">
   <!-- ✔ -->
   <g style="fill: #10b981" transform="translate(339.824219 186.887125) scale(0.14 -0.14)">
    <use xlink:href="#DejaVuSans-2714"/>
   </g>
  </g>
  <g id="text_15">
   <!-- ✔ -->
   <g style="fill: #10b981" transform="translate(461.324219 186.887125) scale(0.14 -0.14)">
    <use xlink:href="#DejaVuSans-2714"/>
   </g>
  </g>
 </g>
</svg>
