<?xml version="1.0" encoding="utf-8" standalone="no"?>
<!DOCTYPE svg PUBLIC "-//W3C//DTD SVG 1.1//EN"
  "http://www.w3.org/Graphics/SVG/1.1/DTD/svg11.dtd">
<svg xmlns:xlink="http://www.w3.org/1999/xlink" width="640.8pt" height="221.893125pt" viewBox="0 0 640.8 221.893125" xmlns="http://www.w3.org/2000/svg" version="1.1">
 <metadata>
  <rdf:RDF xmlns:dc="http://purl.org/dc/elements/1.1/" xmlns:cc="http://creativecommons.org/ns#" xmlns:rdf="http://www.w3.org/1999/02/22-rdf-syntax-ns#">
   <cc:Work>
    <dc:type rdf:resource="http://purl.org/dc/dcmitype/StillImage"/>
    <dc:date>2025-10-23T17:23:43.491339</dc:date>
    <dc:format>image/svg+xml</dc:format>
    <dc:creator>
     <cc:Agent>
      <dc:title>Matplotlib v3.10.3, https://matplotlib.org/</dc:title>
     </cc:Agent>
    </dc:creator>
   </cc:Work>
  </rdf:RDF>
 </metadata>
 <defs>
  <style type="text/css">*{stroke-linejoin: round; stroke-linecap: butt}</style>
 </defs>
 <g id="figure_1">
  <g id="patch_1">
   <path d="M 0 221.893125 
L 640.8 221.893125 
L 640.8 0 
L 0 0 
z
" style="fill: #f8fafc"/>
  </g>
  <g id="axes_1">
   <g id="patch_2">
    <path d="M 170.71875 187.760625 
C 204.390925 187.760625 236.688507 180.463481 260.49833 167.476305 
C 284.308153 154.489129 297.68625 136.872266 297.68625 118.505625 
C 297.68625 100.138984 284.308153 82.522121 260.49833 69.534945 
C 236.688507 56.547769 204.390925 49.250625 170.71875 49.250625 
C 137.046575 49.250625 104.748993 56.547769 80.93917 69.534945 
C 57.129347 82.522121 43.75125 100.138984 43.75125 118.505625 
C 43.75125 136.872266 57.129347 154.489129 80.93917 167.476305 
C 104.748993 180.463481 137.046575 187.760625 170.71875 187.760625 
L 170.71875 187.760625 
z
" clip-path="url(#pbb7bbaabdc)" style="fill: none; stroke-dasharray: 7.4,3.2; stroke-dashoffset: 0; stroke: #ff0000; stroke-width: 2; stroke-linejoin: miter"/>
   </g>
   <g id="line2d_1">
    <defs>
     <path id="m054f0f7b2d" d="M 0 4 
C 1.060812 4 2.078319 3.578535 2.828427 2.828427 
C 3.578535 2.078319 4 1.060812 4 0 
C 4 -1.060812 3.578535 -2.078319 2.828427 -2.828427 
C 2.078319 -3.578535 1.060812 -4 0 -4 
C -1.060812 -4 -2.078319 -3.578535 -2.828427 -2.828427 
C -3.578535 -2.078319 -4 -1.060812 -4 0 
C -4 1.060812 -3.578535 2.078319 -2.828427 2.828427 
C -2.078319 3.578535 -1.060812 4 0 4 
z
" style="stroke: #0000ff"/>
    </defs>
    <g clip-path="url(#pbb7bbaabdc)">
     <use xlink:href="#m054f0f7b2d" x="103.3875" y="118.505625" style="fill: #0000ff; stroke: #0000ff"/>
    </g>
   </g>
   <g id="line2d_2">
    <g clip-path="url(#pbb7bbaabdc)">
     <use xlink:href="#m054f0f7b2d" x="141.8625" y="99.268125" style="fill: #0000ff; stroke: #0000ff"/>
    </g>
   </g>
   <g id="line2d_3">
    <g clip-path="url(#pbb7bbaabdc)">
     <use xlink:href="#m054f0f7b2d" x="122.625" y="137.743125" style="fill: #0000ff; stroke: #0000ff"/>
    </g>
   </g>
   <g id="line2d_4">
    <g clip-path="url(#pbb7bbaabdc)">
     <use xlink:href="#m054f0f7b2d" x="103.3875" y="80.030625" style="fill: #0000ff; stroke: #0000ff"/>
    </g>
   </g>
   <g id="line2d_5">
    <g clip-path="url(#pbb7bbaabdc)">
     <use xlink:href="#m054f0f7b2d" x="84.15" y="99.268125" style="fill: #0000ff; stroke: #0000ff"/>
    </g>
   </g>
   <g id="line2d_6">
    <g clip-path="url(#pbb7bbaabdc)">
     <use xlink:href="#m054f0f7b2d" x="64.9125" y="118.505625" style="fill: #0000ff; stroke: #0000ff"/>
    </g>
   </g>
   <g id="line2d_7">
    <g clip-path="url(#pbb7bbaabdc)">
     <use xlink:href="#m054f0f7b2d" x="84.15" y="156.980625" style="fill: #0000ff; stroke: #0000ff"/>
    </g>
   </g>
   <g id="line2d_8">
    <g clip-path="url(#pbb7bbaabdc)">
     <use xlink:href="#m054f0f7b2d" x="132.24375" y="128.124375" style="fill: #0000ff; stroke: #0000ff"/>
    </g>
   </g>
   <g id="line2d_9">
    <g clip-path="url(#pbb7bbaabdc)">
     <use xlink:href="#m054f0f7b2d" x="122.625" y="89.649375" style="fill: #0000ff; stroke: #0000ff"/>
    </g>
   </g>
   <g id="line2d_10">
    <g clip-path="url(#pbb7bbaabdc)">
     <use xlink:href="#m054f0f7b2d" x="74.53125" y="108.886875" style="fill: #0000ff; stroke: #0000ff"/>
    </g>
   </g>
   <g id="line2d_11">
    <g clip-path="url(#pbb7bbaabdc)">
     <use xlink:href="#m054f0f7b2d" x="113.00625" y="147.361875" style="fill: #0000ff; stroke: #0000ff"/>
    </g>
   </g>
   <g id="line2d_12">
    <g clip-path="url(#pbb7bbaabdc)">
     <use xlink:href="#m054f0f7b2d" x="276.525" y="118.505625" style="fill: #0000ff; stroke: #0000ff"/>
    </g>
   </g>
   <g id="line2d_13">
    <path d="M 161.1 114.658125 
" clip-path="url(#pbb7bbaabdc)" style="fill: none; stroke: #008000; stroke-width: 1.5; stroke-linecap: square"/>
    <defs>
     <path id="m39aa357df7" d="M 0 -10 
L -2.24514 -3.09017 
L -9.510565 -3.09017 
L -3.632713 1.18034 
L -5.877853 8.09017 
L -0 3.81966 
L 5.877853 8.09017 
L 3.632713 1.18034 
L 9.510565 -3.09017 
L 2.24514 -3.09017 
z
" style="stroke: #000000; stroke-linejoin: bevel"/>
    </defs>
    <g clip-path="url(#pbb7bbaabdc)">
     <use xlink:href="#m39aa357df7" x="161.1" y="114.658125" style="fill: #008000; stroke: #000000; stroke-linejoin: bevel"/>
    </g>
   </g>
   <g id="text_1">
    <!--      Mean-based Prototypes (FCM, MFCM) -->
    <g transform="translate(23.39625 16.318125) scale(0.12 -0.12)">
     <defs>
      <path id="DejaVuSans-Bold-20" transform="scale(0.015625)"/>
      <path id="DejaVuSans-Bold-4d" d="M 588 4666 
L 2119 4666 
L 3181 2169 
L 4250 4666 
L 5778 4666 
L 5778 0 
L 4641 0 
L 4641 3413 
L 3566 897 
L 2803 897 
L 1728 3413 
L 1728 0 
L 588 0 
L 588 4666 
z
" transform="scale(0.015625)"/>
      <path id="DejaVuSans-Bold-65" d="M 4031 1759 
L 4031 1441 
L 1416 1441 
Q 1456 1047 1700 850 
Q 1944 653 2381 653 
Q 2734 653 3104 758 
Q 3475 863 3866 1075 
L 3866 213 
Q 3469 63 3072 -14 
Q 2675 -91 2278 -91 
Q 1328 -91 801 392 
Q 275 875 275 1747 
Q 275 2603 792 3093 
Q 1309 3584 2216 3584 
Q 3041 3584 3536 3087 
Q 4031 2591 4031 1759 
z
M 2881 2131 
Q 2881 2450 2695 2645 
Q 2509 2841 2209 2841 
Q 1884 2841 1681 2658 
Q 1478 2475 1428 2131 
L 2881 2131 
z
" transform="scale(0.015625)"/>
      <path id="DejaVuSans-Bold-61" d="M 2106 1575 
Q 1756 1575 1579 1456 
Q 1403 1338 1403 1106 
Q 1403 894 1545 773 
Q 1688 653 1941 653 
Q 2256 653 2472 879 
Q 2688 1106 2688 1447 
L 2688 1575 
L 2106 1575 
z
M 3816 1997 
L 3816 0 
L 2688 0 
L 2688 519 
Q 2463 200 2181 54 
Q 1900 -91 1497 -91 
Q 953 -91 614 226 
Q 275 544 275 1050 
Q 275 1666 698 1953 
Q 1122 2241 2028 2241 
L 2688 2241 
L 2688 2328 
Q 2688 2594 2478 2717 
Q 2269 2841 1825 2841 
Q 1466 2841 1156 2769 
Q 847 2697 581 2553 
L 581 3406 
Q 941 3494 1303 3539 
Q 1666 3584 2028 3584 
Q 2975 3584 3395 3211 
Q 3816 2838 3816 1997 
z
" transform="scale(0.015625)"/>
      <path id="DejaVuSans-Bold-6e" d="M 4056 2131 
L 4056 0 
L 2931 0 
L 2931 347 
L 2931 1631 
Q 2931 2084 2911 2256 
Q 2891 2428 2841 2509 
Q 2775 2619 2662 2680 
Q 2550 2741 2406 2741 
Q 2056 2741 1856 2470 
Q 1656 2200 1656 1722 
L 1656 0 
L 538 0 
L 538 3500 
L 1656 3500 
L 1656 2988 
Q 1909 3294 2193 3439 
Q 2478 3584 2822 3584 
Q 3428 3584 3742 3212 
Q 4056 2841 4056 2131 
z
" transform="scale(0.015625)"/>
      <path id="DejaVuSans-Bold-2d" d="M 347 2297 
L 2309 2297 
L 2309 1388 
L 347 1388 
L 347 2297 
z
" transform="scale(0.015625)"/>
      <path id="DejaVuSans-Bold-62" d="M 2400 722 
Q 2759 722 2948 984 
Q 3138 1247 3138 1747 
Q 3138 2247 2948 2509 
Q 2759 2772 2400 2772 
Q 2041 2772 1848 2508 
Q 1656 2244 1656 1747 
Q 1656 1250 1848 986 
Q 2041 722 2400 722 
z
M 1656 2988 
Q 1888 3294 2169 3439 
Q 2450 3584 2816 3584 
Q 3463 3584 3878 3070 
Q 4294 2556 4294 1747 
Q 4294 938 3878 423 
Q 3463 -91 2816 -91 
Q 2450 -91 2169 54 
Q 1888 200 1656 506 
L 1656 0 
L 538 0 
L 538 4863 
L 1656 4863 
L 1656 2988 
z
" transform="scale(0.015625)"/>
      <path id="DejaVuSans-Bold-73" d="M 3272 3391 
L 3272 2541 
Q 2913 2691 2578 2766 
Q 2244 2841 1947 2841 
Q 1628 2841 1473 2761 
Q 1319 2681 1319 2516 
Q 1319 2381 1436 2309 
Q 1553 2238 1856 2203 
L 2053 2175 
Q 2913 2066 3209 1816 
Q 3506 1566 3506 1031 
Q 3506 472 3093 190 
Q 2681 -91 1863 -91 
Q 1516 -91 1145 -36 
Q 775 19 384 128 
L 384 978 
Q 719 816 1070 734 
Q 1422 653 1784 653 
Q 2113 653 2278 743 
Q 2444 834 2444 1013 
Q 2444 1163 2330 1236 
Q 2216 1309 1875 1350 
L 1678 1375 
Q 931 1469 631 1722 
Q 331 1975 331 2491 
Q 331 3047 712 3315 
Q 1094 3584 1881 3584 
Q 2191 3584 2531 3537 
Q 2872 3491 3272 3391 
z
" transform="scale(0.015625)"/>
      <path id="DejaVuSans-Bold-64" d="M 2919 2988 
L 2919 4863 
L 4044 4863 
L 4044 0 
L 2919 0 
L 2919 506 
Q 2688 197 2409 53 
Q 2131 -91 1766 -91 
Q 1119 -91 703 423 
Q 288 938 288 1747 
Q 288 2556 703 3070 
Q 1119 3584 1766 3584 
Q 2128 3584 2408 3439 
Q 2688 3294 2919 2988 
z
M 2181 722 
Q 2541 722 2730 984 
Q 2919 1247 2919 1747 
Q 2919 2247 2730 2509 
Q 2541 2772 2181 2772 
Q 1825 2772 1636 2509 
Q 1447 2247 1447 1747 
Q 1447 1247 1636 984 
Q 1825 722 2181 722 
z
" transform="scale(0.015625)"/>
      <path id="DejaVuSans-Bold-50" d="M 588 4666 
L 2584 4666 
Q 3475 4666 3951 4270 
Q 4428 3875 4428 3144 
Q 4428 2409 3951 2014 
Q 3475 1619 2584 1619 
L 1791 1619 
L 1791 0 
L 588 0 
L 588 4666 
z
M 1791 3794 
L 1791 2491 
L 2456 2491 
Q 2806 2491 2997 2661 
Q 3188 2831 3188 3144 
Q 3188 3456 2997 3625 
Q 2806 3794 2456 3794 
L 1791 3794 
z
" transform="scale(0.015625)"/>
      <path id="DejaVuSans-Bold-72" d="M 3138 2547 
Q 2991 2616 2845 2648 
Q 2700 2681 2553 2681 
Q 2122 2681 1889 2404 
Q 1656 2128 1656 1613 
L 1656 0 
L 538 0 
L 538 3500 
L 1656 3500 
L 1656 2925 
Q 1872 3269 2151 3426 
Q 2431 3584 2822 3584 
Q 2878 3584 2943 3579 
Q 3009 3575 3134 3559 
L 3138 2547 
z
" transform="scale(0.015625)"/>
      <path id="DejaVuSans-Bold-6f" d="M 2203 2784 
Q 1831 2784 1636 2517 
Q 1441 2250 1441 1747 
Q 1441 1244 1636 976 
Q 1831 709 2203 709 
Q 2569 709 2762 976 
Q 2956 1244 2956 1747 
Q 2956 2250 2762 2517 
Q 2569 2784 2203 2784 
z
M 2203 3584 
Q 3106 3584 3614 3096 
Q 4122 2609 4122 1747 
Q 4122 884 3614 396 
Q 3106 -91 2203 -91 
Q 1297 -91 786 396 
Q 275 884 275 1747 
Q 275 2609 786 3096 
Q 1297 3584 2203 3584 
z
" transform="scale(0.015625)"/>
      <path id="DejaVuSans-Bold-74" d="M 1759 4494 
L 1759 3500 
L 2913 3500 
L 2913 2700 
L 1759 2700 
L 1759 1216 
Q 1759 972 1856 886 
Q 1953 800 2241 800 
L 2816 800 
L 2816 0 
L 1856 0 
Q 1194 0 917 276 
Q 641 553 641 1216 
L 641 2700 
L 84 2700 
L 84 3500 
L 641 3500 
L 641 4494 
L 1759 4494 
z
" transform="scale(0.015625)"/>
      <path id="DejaVuSans-Bold-79" d="M 78 3500 
L 1197 3500 
L 2138 1125 
L 2938 3500 
L 4056 3500 
L 2584 -331 
Q 2363 -916 2067 -1148 
Q 1772 -1381 1288 -1381 
L 641 -1381 
L 641 -647 
L 991 -647 
Q 1275 -647 1404 -556 
Q 1534 -466 1606 -231 
L 1638 -134 
L 78 3500 
z
" transform="scale(0.015625)"/>
      <path id="DejaVuSans-Bold-70" d="M 1656 506 
L 1656 -1331 
L 538 -1331 
L 538 3500 
L 1656 3500 
L 1656 2988 
Q 1888 3294 2169 3439 
Q 2450 3584 2816 3584 
Q 3463 3584 3878 3070 
Q 4294 2556 4294 1747 
Q 4294 938 3878 423 
Q 3463 -91 2816 -91 
Q 2450 -91 2169 54 
Q 1888 200 1656 506 
z
M 2400 2772 
Q 2041 2772 1848 2508 
Q 1656 2244 1656 1747 
Q 1656 1250 1848 986 
Q 2041 722 2400 722 
Q 2759 722 2948 984 
Q 3138 1247 3138 1747 
Q 3138 2247 2948 2509 
Q 2759 2772 2400 2772 
z
" transform="scale(0.015625)"/>
      <path id="DejaVuSans-Bold-28" d="M 2413 -844 
L 1484 -844 
Q 1006 -72 778 623 
Q 550 1319 550 2003 
Q 550 2688 779 3389 
Q 1009 4091 1484 4856 
L 2413 4856 
Q 2013 4116 1813 3408 
Q 1613 2700 1613 2009 
Q 1613 1319 1811 609 
Q 2009 -100 2413 -844 
z
" transform="scale(0.015625)"/>
      <path id="DejaVuSans-Bold-46" d="M 588 4666 
L 3834 4666 
L 3834 3756 
L 1791 3756 
L 1791 2888 
L 3713 2888 
L 3713 1978 
L 1791 1978 
L 1791 0 
L 588 0 
L 588 4666 
z
" transform="scale(0.015625)"/>
      <path id="DejaVuSans-Bold-43" d="M 4288 256 
Q 3956 84 3597 -3 
Q 3238 -91 2847 -91 
Q 1681 -91 1000 561 
Q 319 1213 319 2328 
Q 319 3447 1000 4098 
Q 1681 4750 2847 4750 
Q 3238 4750 3597 4662 
Q 3956 4575 4288 4403 
L 4288 3438 
Q 3953 3666 3628 3772 
Q 3303 3878 2944 3878 
Q 2300 3878 1931 3465 
Q 1563 3053 1563 2328 
Q 1563 1606 1931 1193 
Q 2300 781 2944 781 
Q 3303 781 3628 887 
Q 3953 994 4288 1222 
L 4288 256 
z
" transform="scale(0.015625)"/>
      <path id="DejaVuSans-Bold-2c" d="M 653 1209 
L 1778 1209 
L 1778 256 
L 1006 -909 
L 341 -909 
L 653 256 
L 653 1209 
z
" transform="scale(0.015625)"/>
      <path id="DejaVuSans-Bold-29" d="M 513 -844 
Q 913 -100 1113 609 
Q 1313 1319 1313 2009 
Q 1313 2700 1113 3408 
Q 913 4116 513 4856 
L 1441 4856 
Q 1916 4091 2145 3389 
Q 2375 2688 2375 2003 
Q 2375 1319 2147 623 
Q 1919 -72 1441 -844 
L 513 -844 
z
" transform="scale(0.015625)"/>
     </defs>
     <use xlink:href="#DejaVuSans-Bold-20"/>
     <use xlink:href="#DejaVuSans-Bold-20" transform="translate(34.814453 0)"/>
     <use xlink:href="#DejaVuSans-Bold-20" transform="translate(69.628906 0)"/>
     <use xlink:href="#DejaVuSans-Bold-20" transform="translate(104.443359 0)"/>
     <use xlink:href="#DejaVuSans-Bold-20" transform="translate(139.257812 0)"/>
     <use xlink:href="#DejaVuSans-Bold-4d" transform="translate(174.072266 0)"/>
     <use xlink:href="#DejaVuSans-Bold-65" transform="translate(273.583984 0)"/>
     <use xlink:href="#DejaVuSans-Bold-61" transform="translate(341.40625 0)"/>
     <use xlink:href="#DejaVuSans-Bold-6e" transform="translate(408.886719 0)"/>
     <use xlink:href="#DejaVuSans-Bold-2d" transform="translate(480.078125 0)"/>
     <use xlink:href="#DejaVuSans-Bold-62" transform="translate(521.582031 0)"/>
     <use xlink:href="#DejaVuSans-Bold-61" transform="translate(593.164062 0)"/>
     <use xlink:href="#DejaVuSans-Bold-73" transform="translate(660.644531 0)"/>
     <use xlink:href="#DejaVuSans-Bold-65" transform="translate(720.166016 0)"/>
     <use xlink:href="#DejaVuSans-Bold-64" transform="translate(787.988281 0)"/>
     <use xlink:href="#DejaVuSans-Bold-20" transform="translate(859.570312 0)"/>
     <use xlink:href="#DejaVuSans-Bold-50" transform="translate(894.384766 0)"/>
     <use xlink:href="#DejaVuSans-Bold-72" transform="translate(967.675781 0)"/>
     <use xlink:href="#DejaVuSans-Bold-6f" transform="translate(1016.992188 0)"/>
     <use xlink:href="#DejaVuSans-Bold-74" transform="translate(1085.693359 0)"/>
     <use xlink:href="#DejaVuSans-Bold-6f" transform="translate(1133.496094 0)"/>
     <use xlink:href="#DejaVuSans-Bold-74" transform="translate(1202.197266 0)"/>
     <use xlink:href="#DejaVuSans-Bold-79" transform="translate(1250 0)"/>
     <use xlink:href="#DejaVuSans-Bold-70" transform="translate(1315.185547 0)"/>
     <use xlink:href="#DejaVuSans-Bold-65" transform="translate(1386.767578 0)"/>
     <use xlink:href="#DejaVuSans-Bold-73" transform="translate(1454.589844 0)"/>
     <use xlink:href="#DejaVuSans-Bold-20" transform="translate(1514.111328 0)"/>
     <use xlink:href="#DejaVuSans-Bold-28" transform="translate(1548.925781 0)"/>
     <use xlink:href="#DejaVuSans-Bold-46" transform="translate(1594.628906 0)"/>
     <use xlink:href="#DejaVuSans-Bold-43" transform="translate(1662.939453 0)"/>
     <use xlink:href="#DejaVuSans-Bold-4d" transform="translate(1736.328125 0)"/>
     <use xlink:href="#DejaVuSans-Bold-2c" transform="translate(1835.839844 0)"/>
     <use xlink:href="#DejaVuSans-Bold-20" transform="translate(1873.828125 0)"/>
     <use xlink:href="#DejaVuSans-Bold-4d" transform="translate(1908.642578 0)"/>
     <use xlink:href="#DejaVuSans-Bold-46" transform="translate(2008.154297 0)"/>
     <use xlink:href="#DejaVuSans-Bold-43" transform="translate(2076.464844 0)"/>
     <use xlink:href="#DejaVuSans-Bold-4d" transform="translate(2149.853516 0)"/>
     <use xlink:href="#DejaVuSans-Bold-29" transform="translate(2249.365234 0)"/>
    </g>
   </g>
  </g>
  <g id="axes_2">
   <g id="patch_3">
    <path d="M 489.31875 187.760625 
C 522.990925 187.760625 555.288507 180.463481 579.09833 167.476305 
C 602.908153 154.489129 616.28625 136.872266 616.28625 118.505625 
C 616.28625 100.138984 602.908153 82.522121 579.09833 69.534945 
C 555.288507 56.547769 522.990925 49.250625 489.31875 49.250625 
C 455.646575 49.250625 423.348993 56.547769 399.53917 69.534945 
C 375.729347 82.522121 362.35125 100.138984 362.35125 118.505625 
C 362.35125 136.872266 375.729347 154.489129 399.53917 167.476305 
C 423.348993 180.463481 455.646575 187.760625 489.31875 187.760625 
L 489.31875 187.760625 
z
" clip-path="url(#pa5fba03efd)" style="fill: none; stroke-dasharray: 7.4,3.2; stroke-dashoffset: 0; stroke: #ff0000; stroke-width: 2; stroke-linejoin: miter"/>
   </g>
   <g id="line2d_14">
    <g clip-path="url(#pa5fba03efd)">
     <use xlink:href="#m054f0f7b2d" x="421.9875" y="118.505625" style="fill: #0000ff; stroke: #0000ff"/>
    </g>
   </g>
   <g id="line2d_15">
    <g clip-path="url(#pa5fba03efd)">
     <use xlink:href="#m054f0f7b2d" x="460.4625" y="99.268125" style="fill: #0000ff; stroke: #0000ff"/>
    </g>
   </g>
   <g id="line2d_16">
    <g clip-path="url(#pa5fba03efd)">
     <use xlink:href="#m054f0f7b2d" x="441.225" y="137.743125" style="fill: #0000ff; stroke: #0000ff"/>
    </g>
   </g>
   <g id="line2d_17">
    <g clip-path="url(#pa5fba03efd)">
     <use xlink:href="#m054f0f7b2d" x="421.9875" y="80.030625" style="fill: #0000ff; stroke: #0000ff"/>
    </g>
   </g>
   <g id="line2d_18">
    <g clip-path="url(#pa5fba03efd)">
     <use xlink:href="#m054f0f7b2d" x="402.75" y="99.268125" style="fill: #0000ff; stroke: #0000ff"/>
    </g>
   </g>
   <g id="line2d_19">
    <g clip-path="url(#pa5fba03efd)">
     <use xlink:href="#m054f0f7b2d" x="383.5125" y="118.505625" style="fill: #0000ff; stroke: #0000ff"/>
    </g>
   </g>
   <g id="line2d_20">
    <g clip-path="url(#pa5fba03efd)">
     <use xlink:href="#m054f0f7b2d" x="402.75" y="156.980625" style="fill: #0000ff; stroke: #0000ff"/>
    </g>
   </g>
   <g id="line2d_21">
    <g clip-path="url(#pa5fba03efd)">
     <use xlink:href="#m054f0f7b2d" x="450.84375" y="128.124375" style="fill: #0000ff; stroke: #0000ff"/>
    </g>
   </g>
   <g id="line2d_22">
    <g clip-path="url(#pa5fba03efd)">
     <use xlink:href="#m054f0f7b2d" x="441.225" y="89.649375" style="fill: #0000ff; stroke: #0000ff"/>
    </g>
   </g>
   <g id="line2d_23">
    <g clip-path="url(#pa5fba03efd)">
     <use xlink:href="#m054f0f7b2d" x="393.13125" y="108.886875" style="fill: #0000ff; stroke: #0000ff"/>
    </g>
   </g>
   <g id="line2d_24">
    <g clip-path="url(#pa5fba03efd)">
     <use xlink:href="#m054f0f7b2d" x="431.60625" y="147.361875" style="fill: #0000ff; stroke: #0000ff"/>
    </g>
   </g>
   <g id="line2d_25">
    <g clip-path="url(#pa5fba03efd)">
     <use xlink:href="#m054f0f7b2d" x="595.125" y="118.505625" style="fill: #0000ff; stroke: #0000ff"/>
    </g>
   </g>
   <g id="line2d_26">
    <g clip-path="url(#pa5fba03efd)">
     <use xlink:href="#m054f0f7b2d" x="421.9875" y="118.505625" style="fill: #0000ff; stroke: #0000ff"/>
    </g>
   </g>
   <g id="line2d_27">
    <path d="M 421.9875 118.505625 
" clip-path="url(#pa5fba03efd)" style="fill: none; stroke: #ffd700; stroke-width: 1.5; stroke-linecap: square"/>
    <defs>
     <path id="m9fc775d382" d="M -0 12.727922 
L 12.727922 0 
L 0 -12.727922 
L -12.727922 -0 
z
" style="stroke: #ffd700; stroke-width: 3; stroke-linejoin: miter"/>
    </defs>
    <g clip-path="url(#pa5fba03efd)">
     <use xlink:href="#m9fc775d382" x="421.9875" y="118.505625" style="fill-opacity: 0; stroke: #ffd700; stroke-width: 3; stroke-linejoin: miter"/>
    </g>
   </g>
   <g id="text_2">
    <!--      Medoid Prototypes (FCMd) -->
    <g transform="translate(378.834375 16.318125) scale(0.12 -0.12)">
     <defs>
      <path id="DejaVuSans-Bold-69" d="M 538 3500 
L 1656 3500 
L 1656 0 
L 538 0 
L 538 3500 
z
M 538 4863 
L 1656 4863 
L 1656 3950 
L 538 3950 
L 538 4863 
z
" transform="scale(0.015625)"/>
     </defs>
     <use xlink:href="#DejaVuSans-Bold-20"/>
     <use xlink:href="#DejaVuSans-Bold-20" transform="translate(34.814453 0)"/>
     <use xlink:href="#DejaVuSans-Bold-20" transform="translate(69.628906 0)"/>
     <use xlink:href="#DejaVuSans-Bold-20" transform="translate(104.443359 0)"/>
     <use xlink:href="#DejaVuSans-Bold-20" transform="translate(139.257812 0)"/>
     <use xlink:href="#DejaVuSans-Bold-4d" transform="translate(174.072266 0)"/>
     <use xlink:href="#DejaVuSans-Bold-65" transform="translate(273.583984 0)"/>
     <use xlink:href="#DejaVuSans-Bold-64" transform="translate(341.40625 0)"/>
     <use xlink:href="#DejaVuSans-Bold-6f" transform="translate(412.988281 0)"/>
     <use xlink:href="#DejaVuSans-Bold-69" transform="translate(481.689453 0)"/>
     <use xlink:href="#DejaVuSans-Bold-64" transform="translate(515.966797 0)"/>
     <use xlink:href="#DejaVuSans-Bold-20" transform="translate(587.548828 0)"/>
     <use xlink:href="#DejaVuSans-Bold-50" transform="translate(622.363281 0)"/>
     <use xlink:href="#DejaVuSans-Bold-72" transform="translate(695.654297 0)"/>
     <use xlink:href="#DejaVuSans-Bold-6f" transform="translate(744.970703 0)"/>
     <use xlink:href="#DejaVuSans-Bold-74" transform="translate(813.671875 0)"/>
     <use xlink:href="#DejaVuSans-Bold-6f" transform="translate(861.474609 0)"/>
     <use xlink:href="#DejaVuSans-Bold-74" transform="translate(930.175781 0)"/>
     <use xlink:href="#DejaVuSans-Bold-79" transform="translate(977.978516 0)"/>
     <use xlink:href="#DejaVuSans-Bold-70" transform="translate(1043.164062 0)"/>
     <use xlink:href="#DejaVuSans-Bold-65" transform="translate(1114.746094 0)"/>
     <use xlink:href="#DejaVuSans-Bold-73" transform="translate(1182.568359 0)"/>
     <use xlink:href="#DejaVuSans-Bold-20" transform="translate(1242.089844 0)"/>
     <use xlink:href="#DejaVuSans-Bold-28" transform="translate(1276.904297 0)"/>
     <use xlink:href="#DejaVuSans-Bold-46" transform="translate(1322.607422 0)"/>
     <use xlink:href="#DejaVuSans-Bold-43" transform="translate(1390.917969 0)"/>
     <use xlink:href="#DejaVuSans-Bold-4d" transform="translate(1464.306641 0)"/>
     <use xlink:href="#DejaVuSans-Bold-64" transform="translate(1563.818359 0)"/>
     <use xlink:href="#DejaVuSans-Bold-29" transform="translate(1635.400391 0)"/>
    </g>
   </g>
  </g>
 </g>
 <defs>
  <clipPath id="pbb7bbaabdc">
   <rect x="7.2" y="22.318125" width="307.8" height="192.375"/>
  </clipPath>
  <clipPath id="pa5fba03efd">
   <rect x="325.8" y="22.318125" width="307.8" height="192.375"/>
  </clipPath>
 </defs>
</svg>
